<?xml version="1.0" encoding="utf-8"?>
<!-- Generator: Adobe Illustrator 28.3.0, SVG Export Plug-In . SVG Version: 6.00 Build 0)  -->
<svg version="1.1" id="Layer_1" xmlns="http://www.w3.org/2000/svg" xmlns:xlink="http://www.w3.org/1999/xlink" x="0px" y="0px"
	 viewBox="0 0 24 24" style="enable-background:new 0 0 24 24;" xml:space="preserve">
<style type="text/css">
	.st0{fill:#7289DA;}
</style>
<path class="st0" d="M15.4,11.4c-0.1,0.6-0.6,1.1-1.2,1.1c-0.7,0-1.2-0.6-1.2-1.2s0.6-1.2,1.2-1.2C14.9,10.1,15.4,10.7,15.4,11.4
	C15.4,11.4,15.4,11.4,15.4,11.4L15.4,11.4L15.4,11.4z M9.8,10.1c-0.7,0.1-1.2,0.6-1.2,1.3s0.5,1.3,1.2,1.3h0c0.7,0,1.2-0.6,1.2-1.3
	c0,0,0,0,0-0.1v0c0,0,0,0,0-0.1C11.1,10.7,10.5,10.1,9.8,10.1L9.8,10.1L9.8,10.1z M22.5,2.5V24c-3-2.7-2.1-1.8-5.6-5.1l0.6,2.2H4
	c-1.4,0-2.5-1.1-2.5-2.5c0,0,0,0,0,0V2.5c0,0,0,0,0,0C1.5,1.1,2.6,0,4,0H20C21.4,0,22.5,1.1,22.5,2.5L22.5,2.5L22.5,2.5z M19.1,13.8
	c0-2.6-0.7-5-1.8-7.1l0,0.1c-0.9-0.7-2.1-1.2-3.4-1.3l0,0l-0.2,0.2c1.1,0.3,2.2,0.8,3,1.5l0,0c-1.4-0.8-3.1-1.2-4.8-1.2
	C10.5,6.1,9,6.4,7.8,7l0.1,0C7.4,7.2,7.1,7.3,7.1,7.3C8,6.6,9.1,6,10.2,5.7l0.1,0l-0.1-0.1C8.9,5.7,7.7,6.1,6.8,6.9l0,0
	c-1.1,2-1.7,4.4-1.7,7v0c0.8,1.1,2.1,1.8,3.5,1.8c0,0,0.1,0,0.1,0h0c0,0,0.4-0.5,0.8-1c-0.9-0.2-1.6-0.7-2.1-1.4l0,0
	c0.2,0.1,0.5,0.3,0.5,0.3c1.2,0.7,2.7,1.1,4.2,1.1c1.2,0,2.3-0.2,3.4-0.7l-0.1,0c0.5-0.2,1-0.4,1.4-0.7l0,0
	c-0.5,0.7-1.3,1.2-2.1,1.4l0,0c0.4,0.5,0.8,1,0.8,1c0,0,0.1,0,0.1,0C17,15.7,18.3,15,19.1,13.8L19.1,13.8L19.1,13.8z"/>
</svg>
