<?xml version="1.0" encoding="utf-8"?>
<!-- Generator: Adobe Illustrator 24.1.2, SVG Export Plug-In . SVG Version: 6.00 Build 0)  -->
<svg version="1.1" id="Layer_1" xmlns="http://www.w3.org/2000/svg" xmlns:xlink="http://www.w3.org/1999/xlink" x="0px" y="0px"
	 viewBox="0 0 140.03 140.4" style="enable-background:new 0 0 140.03 140.4;" xml:space="preserve">
<style type="text/css">
	.st0{fill:#FCFCFC;}
</style>
<circle class="st0" cx="70.01" cy="70.2" r="66.48"/>
<g>
	<path d="M70.01,1.63c-37.87,0-68.57,30.7-68.57,68.57c0,37.87,30.7,68.57,68.57,68.57s68.57-30.7,68.57-68.57
		C138.59,32.33,107.89,1.63,70.01,1.63z M69.68,131.43c-33.72,0.05-61.28-27.56-61.32-61.42C8.32,36.17,35.79,8.57,69.58,8.51
		c33.77-0.06,61.58,27.53,61.66,61.16C131.31,103.68,103.69,131.39,69.68,131.43z"/>
	<g>
		<path d="M69.97,12.36c-32.03-0.07-57.92,25.77-57.85,57.75c0.07,31.75,25.9,57.5,57.65,57.48c31.73-0.02,57.59-25.84,57.63-57.54
			C127.45,38.34,101.65,12.42,69.97,12.36z M35.34,88.3C21.28,90.14,12,77.53,16.14,62.19c2.77-10.25,11.19-15.3,21.3-13.06
			c4.45,0.99,7.04,2.71,5.28,7.75c-0.37,1.07-0.35,2.29-0.67,4.66c-1.47-2.65-2.22-4.29-3.22-5.77c-3.28-4.86-9.72-4.71-12.03,0.67
			c-3.41,7.97-3.26,16.35,0.16,24.28c2.21,5.13,8.46,5.41,11.79,0.92c1.17-1.58,1.99-3.4,3.01-5.17
			C45.15,84.44,43.63,87.21,35.34,88.3z M81.44,71.7c-0.89,9.58-7.04,15.63-16.55,16c-4.97,0.19-9.96,0.03-14.4,0.03
			c0-10.78,0-21.11,0-31.73c2.41-0.29,3.98-0.49,6.57-0.8c-2.99-1.92-5.35-3.44-8.41-5.41c7.2,0,13.68-0.85,19.84,0.2
			C77.74,51.57,82.49,60.34,81.44,71.7z M117.44,96.52c0,0.29-0.23,0.57-0.49,1.19c-0.64-0.35-0.91-0.54-1.2-0.66
			c-6.72-2.77-7.38-8.2-6.83-14.53c0.43-4.9,0.09-9.87,0.09-14.59c-3.72,0.76-7,1.43-11.24,2.3c0.32,5.48,0.66,11.35,1,17.33
			c-2.86,0-6.96,0-11.2,0c2.78-4.15,2.69-34.11-0.26-37.94c4.42,0,8.58,0,11.51,0c-0.39,4.9-0.78,9.88-1.2,15.32
			c4.04,0,7.39,0,11.67,0c-0.45-5.25-0.88-10.34-1.32-15.52c3.13,0,7.1,0,10.9,0c-0.47,2.27-1.29,4.47-1.31,6.68
			C117.43,69.57,117.48,83.05,117.44,96.52z"/>
		<path d="M59.7,53.47c0,10.05,0,20.13,0,30.17c6.91,1.22,10.6-0.55,11.6-6.82c0.85-5.32,0.89-10.96,0.12-16.3
			C70.48,53.93,66.64,51.99,59.7,53.47z"/>
	</g>
</g>
</svg>
